Patient4_TMGait_0pt6_02_right_37_EMG.mot
version=1
nRows=20
nColumns=33
inDegrees=no
endheader
time	1LAddLong	2LGlutMax	3LGlutMed	4LIliopsoas	5LSemiMemb	6LBicFemLong	7LRecFem	8LVastMed	9LVastLat	10LGasMed	11LTibAnt	12lTibPost	13LPeroneusLong	14LSol	15LExtDigLong	16LFlexDigLong	17RAddLong	18RGlutMax	19RGlutMed	20RIliopsoas	21RSemiMemb	22RBicFemLong	23RRecFem	24RVastMed	25RVastLat	26RGasMed	27RTibAnt	28RTibPost	29RPeroneusLong	30RSol	31RExtDigLong	32RFlexDigLong
44.55	0.045471	-0.034637	0.056763	0.000763	0.039673	0.063782	-0.02594	0.006256	-0.034332	0.017548	-0.039825	0.014801	-0.058899	-0.30304	-0.072784	-0.439	0.010376	-0.055695	-0.37918	0.13397	-0.035553	-0.018005	0.041809	-0.020294	-0.006561	-0.00824	0.14847	-0.00885	-0.041046	0.027618	0.001068	-0.004578
44.551	-0.008392	-0.014343	0.072021	0.00946	0.073547	0.12817	-0.025024	0.009613	-0.007782	-0.079041	0.012054	-0.32883	0.066376	0.45013	-0.14404	-0.33661	-0.007935	0.00824	-0.12238	0.23499	-0.066528	0.033569	0.041656	-0.074615	-0.000916	-0.007324	0.27023	0.000153	0.11398	-0.025024	-0.005188	0.004578
44.552	0.007324	-0.027161	0.11292	-0.010223	0.088196	0.14816	-0.009613	0.010681	-0.002899	-0.27649	0.07431	0.50171	0.036469	0.83374	-0.080261	0.1622	0.038605	-0.020294	-0.01358	0.25971	-0.076141	0.04303	0.11459	-0.11581	-0.017242	-0.005798	0.44556	0.001678	0.13336	-0.041351	-0.004272	-0.005035
44.553	-0.005035	-0.056763	0.11734	-0.006104	0.049133	0.14603	-0.016937	0.003815	-0.005646	-0.18417	0.13184	0.87036	-0.010986	0.4129	-0.083618	0.26062	0.12146	-0.048218	-0.087738	0.071869	-0.087738	0.038452	0.12634	-0.11566	-0.011749	0.001678	0.42175	-0.003357	0.03006	-0.087738	0.001221	-0.012054
44.554	-0.005493	-0.054321	0.10101	-0.006104	-0.005035	0.15427	-0.006561	-0.000916	-0.02533	-0.1712	0.15137	-0.074921	-0.040894	-0.007172	0.010376	-0.040588	0.13779	-0.047302	-0.097046	0.061035	-0.085449	0.013123	0.0737	-0.17227	-0.01236	0.005951	0.42175	-0.005798	-0.048523	-0.15305	-0.00412	-0.00412
44.555	-0.007629	-0.10956	0.010071	-0.012817	-0.070496	0.14984	0.000763	0.009918	-0.005188	-0.22003	0.103	-0.4689	-0.032654	-0.33905	0.15457	-0.24765	0.10529	-0.080872	-0.059662	0.038605	-0.084534	-0.004425	0.057678	-0.20111	0.001068	-0.000305	0.49301	-0.001526	-0.28	-0.11047	-0.002136	-0.010071
44.556	-0.005493	-0.11261	-0.069427	0.006409	-0.000458	-0.023193	0.016022	0.009918	-0.013275	-0.2681	0.13947	-0.29022	-0.048218	-0.27206	0.2652	-0.095978	0.1944	-0.003967	0.10422	0.030212	-0.082092	-0.051422	0.18295	-0.2063	-0.003204	0.000916	0.31784	-0.010834	-0.23438	-0.045166	-0.001831	-0.00412
44.557	0.009308	-0.081787	-0.078125	0.019531	-0.030518	-0.20493	0.006714	0.001068	-0.003967	-0.31967	0.19577	-0.083923	-0.096436	0.25711	0.44128	0.010071	0.27679	0.036163	0.072174	0.062103	-0.06958	-0.10284	0.16647	-0.22324	-0.017548	-0.00061	-0.055542	-0.006409	0.052032	-0.052185	-0.001984	-0.00885
44.558	0.023499	-0.14008	0.025177	0.014496	0.053406	-0.23758	0.018005	-0.00412	-0.007324	0.078735	0.21439	-0.10162	-0.018005	0.383	0.12146	-0.040894	0.2385	-0.005646	0.008698	0.093231	-0.045624	-0.097809	0.18051	-0.16647	-0.003357	0	-0.42877	-0.001984	0.050659	-0.036316	-0.003052	-0.013428
44.559	0.027466	-0.1265	0.16602	0.006409	0.12314	-0.37979	0.028687	-0.003357	-0.008392	0.59326	0.048676	-0.087585	0.04303	0.24887	0.83679	0.06134	0.11337	-0.079041	0.062866	0.12238	-0.056152	-0.074921	0.18829	-0.18738	0.005951	0.003204	-0.48325	-0.007019	0.021057	-0.061951	-0.002899	-0.022278
44.56	0.02594	-0.18036	0.090332	0.00412	0.15045	-0.29984	0.009613	-0.002594	-0.008392	0.72449	-0.23941	-0.091553	0.053406	0.27756	0.42023	0.23438	-0.04364	-0.084991	0.13534	0.16419	-0.090027	-0.039978	0.23636	-0.21332	0.019226	0.005035	-0.27008	-0.001984	0.18326	-0.052185	-0.001831	-0.007172
44.561	0.01709	-0.17319	0.069275	0.005493	0.097504	0.008545	0.014343	0.00351	-0.046539	-0.021362	-0.14267	-0.092926	-0.001678	0.40848	-0.086823	0.58472	-0.10193	-0.061188	0.1741	0.16495	-0.10117	-0.025177	0.28336	-0.1799	0.016174	0.000305	-0.10895	-0.005646	-0.026703	0.063629	0.001221	-0.00824
44.562	0.010986	-0.16052	0.04715	0.00473	0.059204	0.12634	0.014038	0.005646	-0.03067	-0.095825	0.32242	-0.066376	-0.081482	0.59113	-0.55328	-0.44067	-0.092468	-0.002747	0.072479	0.063324	-0.075378	-0.008392	0.19089	-0.22018	0.016022	-0.005493	0.033722	-0.00824	-0.069885	0.058746	-0.003052	-0.007935
44.563	0.010986	-0.18188	0.03067	0.00946	0.024719	0.13046	0.0177	-0.029755	-0.028381	0.020599	0.31021	-0.044403	-0.08316	0.6987	0.06958	-1.0562	-0.11368	0.006561	0.25971	-0.029907	-0.066528	0.006409	0.024567	-0.16357	0.001984	-0.007324	0.14618	-0.005035	-0.1384	-0.025787	-0.005951	-0.011292
44.564	0.004883	-0.17303	0.011139	0.015869	0.020447	0.22217	-0.023651	0.000458	0.001984	0.13153	0.003662	-0.03418	0.019989	0.72739	-0.29373	0.18936	-0.13016	0.017395	0.31174	-0.049896	-0.060272	0.017853	-0.050507	-0.13901	0.002441	0.00061	0.023041	-0.002289	-0.080414	-0.087738	-0.001068	-0.002289
44.565	0.009308	-0.19119	-0.015106	0.003357	0.011597	0.22415	-0.039215	0.006256	0.048218	0.18616	-0.11627	-0.055695	0.054474	0.62363	-0.10605	0.18387	-0.12985	0.010376	-0.053711	-0.003662	-0.045319	0.012512	-0.15884	-0.11688	-0.000916	0.000763	-0.20203	-0.000458	-0.23132	-0.1358	-0.002289	-0.011139
44.566	-0.002899	-0.17471	-0.02243	-0.012054	-0.009308	0.1944	-0.032654	0.003967	0.054932	0.066833	-0.23254	-0.078888	0.072937	0.61951	-0.52155	0.24658	-0.13733	-0.046234	-0.23178	0.019836	-0.022583	0.025787	-0.26138	-0.11231	0.000153	0.00473	-0.39429	-0.005646	0.27618	-0.13473	-0.001221	-0.006409
44.567	0.007629	-0.16708	-0.011749	0.019073	-0.024567	0.24933	-0.052338	-0.011139	0.030212	-0.10849	-0.24933	-0.066986	0.095825	0.55466	-0.88287	1.0283	-0.16159	-0.093842	-0.33203	0.003967	-0.001984	0.039825	-0.22339	-0.045166	-0.006104	0.007019	-0.14374	-0.002747	0.55679	-0.087891	-0.001526	0.001373
44.568	0.002899	-0.15915	-0.027771	0.008392	-0.037842	0.1152	-0.013428	-0.001526	-0.023041	-0.13077	-0.16434	-0.04303	0.064392	0.39276	-0.47836	-0.77484	-0.12131	-0.015717	-0.22812	-0.006866	-0.008698	0.04715	-0.19516	-0.036621	0.017242	0.013123	0.029144	-0.002594	-0.046844	-0.092621	0.000763	-0.007019
44.569	0.00412	-0.16174	-0.014648	0.016632	-0.041046	0.026245	-0.004272	-0.001526	-0.028687	-0.053406	-0.16968	-0.041351	0.034332	0.17532	-0.30106	-0.47821	-0.08728	0.024109	0.020905	-0.006714	0.005341	0.065002	-0.072021	0.081482	0.012665	0.005646	0.22705	-0.004578	-0.12192	-0.10437	-0.00351	-0.003052
